<svg xmlns="http://www.w3.org/2000/svg" viewBox="0 0 64 64" fill="#3b82f6">
  <path d="M57.2 36.1c.2-1.4.3-2.8.3-4.1s-.1-2.7-.3-4.1l6.3-4.9c.6-.5.8-1.3.4-2l-6-10.4c-.4-.7-1.2-1-2-.8l-7.4 3c-2.1-1.6-4.3-3-6.7-4.1l-1.1-7.8C40.6.7 40-.1 39.1 0h-14.2c-.9-.1-1.5.7-1.6 1.5L22.1 9.3c-2.4 1.1-4.6 2.5-6.7 4.1l-7.4-3c-.8-.3-1.6.1-2 .8L.1 21.6c-.4.7-.2 1.6.4 2l6.3 4.9c-.2 1.4-.3 2.8-.3 4.1s.1 2.7.3 4.1L.5 41.6c-.6.5-.8 1.3-.4 2l6 10.4c.4.7 1.2 1 2 .8l7.4-3c2.1 1.6 4.3 3 6.7 4.1l1.1 7.8c.1.8.8 1.5 1.6 1.5h14.2c.9.1 1.5-.7 1.6-1.5l1.1-7.8c2.4-1.1 4.6-2.5 6.7-4.1l7.4 3c.8.3 1.6-.1 2-.8l6-10.4c.4-.7.2-1.6-.4-2l-6.3-4.9z"></path>
</svg>
